Coordinates
version=1
nRows=17
nColumns=63
inDegrees=yes

Units are S.I. units (second, meters, Newtons, ...)
If the header above contains a line with 'inDegrees', this indicates whether rotational values are in degrees (yes) or radians (no).

endheader
time	pelvis_tilt	pelvis_list	pelvis_rotation	pelvis_tx	pelvis_ty	pelvis_tz	hip_flexion_r	hip_adduction_r	hip_rotation_r	knee_angle_r	knee_angle_r_beta	ankle_angle_r	subtalar_angle_r	mtp_angle_r	hip_flexion_l	hip_adduction_l	hip_rotation_l	knee_angle_l	knee_angle_l_beta	ankle_angle_l	subtalar_angle_l	mtp_angle_l	L5_S1_Flex_Ext	L5_S1_Lat_Bending	L5_S1_axial_rotation	L4_L5_Flex_Ext	L4_L5_Lat_Bending	L4_L5_axial_rotation	L3_L4_Flex_Ext	L3_L4_Lat_Bending	L3_L4_axial_rotation	L2_L3_Flex_Ext	L2_L3_Lat_Bending	L2_L3_axial_rotation	L1_L2_Flex_Ext	L1_L2_Lat_Bending	L1_L2_axial_rotation	L1_T12_Flex_Ext	L1_T12_Lat_Bending	L1_T12_axial_rotation	Abs_r3	Abs_r2	Abs_r1	Abs_t1	Abs_t2	neck_flexion	neck_bending	neck_rotation	arm_flex_r	arm_add_r	arm_rot_r	elbow_flex_r	pro_sup_r	wrist_flex_r	wrist_dev_r	arm_flex_l	arm_add_l	arm_rot_l	elbow_flex_l	pro_sup_l	wrist_flex_l	wrist_dev_l
1.183333	-4.026550	-3.802558	86.835686	0.204694	1.082291	0.114472	4.613622	-2.564902	3.983492	12.744734	0.222438	36.767826	2.529778	0.000000	2.826359	5.085069	3.646647	8.677413	0.151449	29.671667	-13.792354	0.000000	-0.025505	-0.364515	-1.326414	-0.047366	-0.484805	-1.409315	-0.041903	-0.886282	-1.409315	-0.029150	-0.886282	-1.160612	-0.023684	-0.743319	-1.077711	-0.014574	-0.564634	-0.994811	-0.182182	-4.123467	-7.377117	0.000000	0.000000	10.352152	1.486739	-2.979805	57.638279	-53.697490	44.025349	74.988114	88.414379	49.653229	21.635926	71.534422	-17.784949	52.270740	89.977946	80.539819	9.406744	27.899151
1.200000	-3.695282	-3.955042	87.742054	0.202860	1.082282	0.115250	4.590047	-2.343361	2.979651	12.586446	0.219675	36.683503	2.776469	0.000000	3.199790	4.790015	4.136612	9.113987	0.159069	29.631877	-13.442763	0.000000	-0.038946	-0.335790	-1.603711	-0.072327	-0.446600	-1.703943	-0.063985	-0.816439	-1.703943	-0.044512	-0.816439	-1.403248	-0.036165	-0.684742	-1.303016	-0.022254	-0.520138	-1.202784	-0.278188	-3.798519	-8.919362	0.000000	0.000000	10.587875	1.793279	-2.416598	62.232372	-54.952129	48.211469	72.384038	88.417660	44.984350	17.090486	75.939222	-15.996991	54.528414	86.519193	81.032352	9.568731	28.098132
1.216667	-3.392063	-4.133252	88.567826	0.201051	1.082117	0.115999	4.601162	-2.148604	2.126442	12.443565	0.217181	36.538170	2.900122	0.000000	3.574623	4.533848	4.569530	9.500581	0.165816	29.564806	-13.116673	0.000000	-0.051943	-0.308012	-1.870409	-0.096464	-0.409656	-1.987310	-0.085338	-0.748900	-1.987310	-0.059366	-0.748900	-1.636608	-0.048235	-0.628097	-1.519708	-0.029680	-0.477110	-1.402807	-0.371026	-3.484290	-10.402655	0.000000	0.000000	11.063638	2.050341	-1.712332	66.705474	-55.773637	51.339050	69.385317	88.401592	39.234777	11.983711	80.364947	-13.852587	56.947941	82.410689	81.791718	9.085411	27.634973
1.233333	-3.127544	-4.352924	89.280045	0.199307	1.081769	0.116698	4.681856	-1.987705	1.444106	12.336957	0.215321	36.367541	2.923551	0.000000	3.965716	4.325580	4.930035	9.829813	0.171563	29.474436	-12.830041	0.000000	-0.061595	-0.279449	-2.113359	-0.114389	-0.371668	-2.245444	-0.101195	-0.679453	-2.245444	-0.070397	-0.679453	-1.849189	-0.057197	-0.569853	-1.717104	-0.035196	-0.432867	-1.585019	-0.439970	-3.161187	-11.753870	0.000000	0.000000	11.815754	2.177634	-0.748692	71.058900	-56.155852	53.383581	66.073208	88.387281	32.562239	6.580046	84.695580	-11.419471	59.374071	77.810199	82.816205	7.924359	26.530449
1.250000	-2.914563	-4.628394	89.853107	0.197684	1.081218	0.117320	4.867631	-1.871450	0.927594	12.286691	0.214443	36.216075	2.893599	0.000000	4.394312	4.171662	5.164801	10.105553	0.176375	29.377197	-12.549282	0.000000	-0.063897	-0.252312	-2.313392	-0.118662	-0.335576	-2.457979	-0.104976	-0.613473	-2.457979	-0.073027	-0.613473	-2.024218	-0.059334	-0.514516	-1.879631	-0.036511	-0.390832	-1.735044	-0.456407	-2.854209	-12.866394	0.000000	0.000000	12.832928	2.164474	0.335226	75.102768	-56.165139	54.253085	62.595581	88.381895	24.942568	1.053841	88.900491	-8.745619	61.825531	72.773382	84.090212	5.970005	24.599149
1.266667	-2.747211	-4.957654	90.279712	0.196178	1.080471	0.117844	5.168611	-1.792308	0.582755	12.306098	0.214782	36.118279	2.819287	0.000000	4.863694	4.065927	5.271075	10.334967	0.180379	29.290492	-12.279819	0.000000	-0.057566	-0.225270	-2.468441	-0.106907	-0.299609	-2.622719	-0.094576	-0.547722	-2.622719	-0.065793	-0.547722	-2.159886	-0.053456	-0.459371	-2.005609	-0.032893	-0.348943	-1.851331	-0.411191	-2.548300	-13.728731	0.000000	0.000000	14.099482	2.003349	1.568417	78.766407	-55.826407	53.933660	59.071406	88.394034	16.710443	-4.231189	92.887727	-5.929953	64.206515	67.461656	85.569358	3.276884	21.981611
1.283333	-2.610882	-5.345338	90.559712	0.194769	1.079538	0.118223	5.599082	-1.738024	0.388505	12.411526	0.216622	36.094565	2.725101	0.000000	5.379230	3.994484	5.266115	10.519524	0.183600	29.237970	-12.028970	0.000000	-0.039345	-0.195610	-2.576669	-0.073067	-0.260161	-2.737710	-0.064639	-0.475606	-2.737710	-0.044967	-0.475606	-2.254585	-0.036535	-0.398888	-2.093543	-0.022482	-0.303000	-1.932501	-0.281035	-2.212777	-14.330658	0.000000	0.000000	15.547552	1.663814	2.958516	81.948079	-55.126314	52.403974	55.546917	88.413569	8.236149	-8.877842	96.548654	-3.068691	66.470591	62.025538	87.070484	-0.110152	18.815060
1.300000	-2.523624	-5.777233	90.677249	0.193545	1.078449	0.118478	6.159366	-1.713769	0.392568	12.622500	0.220304	36.149494	2.576446	0.000000	5.936376	3.961712	5.106814	10.674227	0.186300	29.251488	-11.749013	0.000000	-0.010921	-0.169274	-2.633805	-0.020282	-0.225134	-2.798418	-0.017943	-0.411572	-2.798418	-0.012482	-0.411572	-2.304580	-0.010142	-0.345183	-2.139967	-0.006240	-0.262205	-1.975354	-0.078010	-1.914858	-14.648436	0.000000	0.000000	17.146454	1.228422	4.274994	84.524595	-54.134899	49.687706	52.046225	88.423883	-0.276343	-12.895446	99.805347	-0.215510	68.615495	56.590731	88.166765	-4.003719	15.350426
1.316667	-2.502934	-6.239418	90.637662	0.192595	1.077249	0.118616	6.841470	-1.718653	0.651720	12.952767	0.226068	36.278383	2.285888	0.000000	6.522446	3.975765	4.792739	10.801036	0.188514	29.337108	-11.438552	0.000000	0.025258	-0.152351	-2.623660	0.046907	-0.202627	-2.787639	0.041497	-0.370427	-2.787639	0.028868	-0.370427	-2.295703	0.023455	-0.310675	-2.131724	0.014433	-0.235992	-1.967745	0.180418	-1.723429	-14.592011	0.000000	0.000000	18.837913	0.818633	5.319378	86.221999	-52.980778	45.652501	48.757854	88.419001	-8.654564	-16.186576	102.636048	2.628137	70.659049	51.277676	89.000016	-8.118098	11.744306
1.333333	-2.548351	-6.709119	90.470080	0.191860	1.075972	0.118772	7.628251	-1.765306	1.072665	13.407674	0.234008	36.495222	1.947691	0.000000	7.145502	4.037769	4.359966	10.952740	0.191161	29.512589	-11.109107	0.000000	0.063608	-0.144477	-2.568468	0.118126	-0.192154	-2.728997	0.104502	-0.351280	-2.728997	0.072698	-0.351280	-2.247410	0.059066	-0.294617	-2.086880	0.036346	-0.223794	-1.926351	0.454346	-1.634348	-14.285049	0.000000	0.000000	20.594999	0.426676	6.161841	87.399639	-51.672832	41.045755	45.537545	88.348171	-16.667439	-18.668177	104.933583	5.278057	72.566848	46.343479	88.846452	-12.701908	8.298937
1.350000	-2.678452	-7.163841	90.203546	0.191358	1.074680	0.119009	8.499330	-1.865681	1.645676	13.996095	0.244278	36.793155	1.527316	0.000000	7.785952	4.166862	3.862172	11.133362	0.194314	29.757283	-10.796802	0.000000	0.100092	-0.149781	-2.467018	0.185881	-0.199209	-2.621207	0.164442	-0.364178	-2.621207	0.114395	-0.364178	-2.158641	0.092946	-0.305434	-2.004452	0.057193	-0.232011	-1.850264	0.714949	-1.694355	-13.720816	0.000000	0.000000	22.294220	0.130198	6.759951	87.895632	-50.228211	35.848658	42.560569	88.214653	-23.942248	-20.144030	106.704729	7.636572	74.263094	41.984868	88.530320	-17.279003	5.066355
1.366667	-2.864700	-7.583864	89.887413	0.190984	1.073408	0.119414	9.424363	-2.003728	2.279963	14.703869	0.256631	37.169692	1.077882	0.000000	8.444344	4.342252	3.352387	11.383264	0.198675	30.072028	-10.506704	0.000000	0.130849	-0.163930	-2.334245	0.242999	-0.218027	-2.480135	0.214972	-0.398580	-2.480135	0.149547	-0.398580	-2.042464	0.121506	-0.334287	-1.896574	0.074767	-0.253928	-1.750684	0.934641	-1.854414	-12.982369	0.000000	0.000000	23.815116	-0.093161	7.170180	87.710080	-48.653108	30.225820	39.946064	88.072649	-30.242570	-20.456271	107.889617	9.557171	75.434426	38.441545	88.462941	-21.151652	2.171801
1.383333	-3.103520	-7.949568	89.565624	0.190677	1.072171	0.120068	10.379592	-2.174974	2.950666	15.525879	0.270978	37.620850	0.567299	0.000000	9.114439	4.567350	2.895666	11.727507	0.204684	30.445787	-10.265618	0.000000	0.151825	-0.186208	-2.187251	0.281955	-0.247657	-2.323954	0.249434	-0.452746	-2.323954	0.173521	-0.452746	-1.913844	0.140985	-0.379715	-1.777141	0.086753	-0.288436	-1.640438	1.084472	-2.106422	-12.164833	0.000000	0.000000	25.070979	-0.209645	7.468796	86.767418	-46.975548	24.219168	37.893042	87.980288	-35.495468	-19.464363	108.570593	10.855402	76.117075	35.892042	88.440616	-24.289047	-0.315254
1.400000	-3.329843	-8.263477	89.246147	0.190277	1.070941	0.121007	11.356691	-2.343328	3.532060	16.435145	0.286847	38.159828	0.163372	0.000000	9.811288	4.787192	2.474754	12.193115	0.212810	30.901053	-10.032509	0.000000	0.162250	-0.204245	-2.034330	0.301314	-0.271646	-2.161476	0.266560	-0.496601	-2.161476	0.185435	-0.496601	-1.780039	0.150665	-0.416496	-1.652893	0.092709	-0.316376	-1.525747	1.158933	-2.310461	-11.314333	0.000000	0.000000	26.037118	-0.377937	7.741286	85.247736	-45.349178	18.237714	36.577888	87.965412	-39.919728	-17.528806	108.763295	11.400053	76.187331	34.444941	88.491015	-26.467049	-2.305852
1.416667	-3.496110	-8.529192	88.990366	0.189596	1.069692	0.122258	12.341553	-2.476366	3.944868	17.406421	0.303799	38.774876	-0.118959	0.000000	10.552393	4.967071	2.146202	12.807215	0.223528	31.446912	-9.797431	0.000000	0.161509	-0.209330	-1.895499	0.299939	-0.278409	-2.013968	0.265343	-0.508965	-2.013968	0.184589	-0.508965	-1.658562	0.149977	-0.426866	-1.540093	0.092286	-0.324252	-1.421625	1.153644	-2.367982	-10.542199	0.000000	0.000000	26.722931	-0.640484	8.121851	83.479484	-43.871884	12.918341	36.023952	88.017274	-44.058478	-15.472237	108.541732	11.035112	75.724350	34.122776	88.532142	-27.874978	-3.774281
1.433333	-3.558817	-8.757969	88.823817	0.188544	1.068404	0.123814	13.327030	-2.540216	4.181327	18.407963	0.321280	39.437674	-0.302836	0.000000	11.354371	5.072757	1.924238	13.578550	0.236990	32.093408	-9.544289	0.000000	0.151124	-0.195234	-1.773576	0.280653	-0.259661	-1.884424	0.248282	-0.474692	-1.884424	0.172720	-0.474692	-1.551879	0.140334	-0.398122	-1.441030	0.086353	-0.302418	-1.330182	1.079467	-2.208528	-9.864097	0.000000	0.000000	27.139577	-1.043432	8.597506	81.658643	-42.546208	8.670627	36.090739	88.116987	-48.212308	-14.069840	107.964120	9.743872	74.828836	34.774309	88.551232	-28.696568	-4.787218
1.450000	-3.513941	-8.961302	88.755577	0.187163	1.067055	0.125624	14.312451	-2.532487	4.258032	19.428521	0.339092	40.128431	-0.420117	0.000000	12.219540	5.086689	1.746101	14.494506	0.252977	32.857356	-9.180074	0.000000	0.133605	-0.162095	-1.661425	0.248118	-0.215586	-1.765264	0.219500	-0.394117	-1.765264	0.152697	-0.394117	-1.453747	0.124066	-0.330543	-1.349908	0.076342	-0.251085	-1.246069	0.954328	-1.833646	-9.240347	0.000000	0.000000	27.302011	-1.599443	9.113760	79.717358	-41.330719	5.277656	36.679032	88.258637	-51.784508	-13.176138	107.054590	7.634623	73.507543	36.128652	88.540604	-28.994175	-5.497874
